<svg xmlns="http://www.w3.org/2000/svg" width="1143.273" height="95.591" viewBox="0 0 1143.273 95.591"><defs><style>.a,.b{fill:#020b0f;}.b{stroke:#9b8e53;stroke-linecap:round;stroke-linejoin:round;stroke-width:1.478px;}</style></defs><g transform="translate(0 -230.923)"><path class="a" d="M39.323,558.919l.35-6.4,14.6-14.559,51.3-1.372V524.411h2.648V518.2l2.132-.039v9.719h3.872l.351-11.113h2.01v2.963h2.836v4.041h1.454V537.86l11.854-8.134,10.951,8.134V524.679h4.314v-4.848l1.9-3.129,3.961.068v2.963h2.912v4.946h2.3v13.871l65.211-.416.3,20.835" transform="translate(-39.323 -233.778)"/><path class="a" d="M437.359,556.794V539.042l6.4.054v-4.788h12.576v4.941l8.453-.153v-4.788h11.172v4.761l4.5.239v-10.08h26.047v9.841h9.932v-7.317l11.263.05v9.529h8.224v15.462Z" transform="translate(38.258 -231.304)"/><path class="a" d="M536.65,559.14V522.568h7.577v6.753H549.4v-7.854H555.9v-2.922l6.527-.116v-3.293l2.843-.135v6.466h4.916v-2.7h6.191V515l3.137-.062v3.49h3.45V559.14Z" transform="translate(57.673 -234.016)"/><path class="a" d="M591.717,561.494V515.4H579.276v-5.186L630.6,509.6v51.89Z" transform="translate(65.919 -235.681)"/><path class="a" d="M757.06,566.465l-.246-40.154,59.549-1.553.7-7.873,3.178-4.218v-5.409l2.641-3.38,1.719-3.143-3.445-.4-.076-3.216,2.726-.544-.194-2.647s3.975-10.053,7.037-11.126,0-6.684,0-6.684l2.355-.089-1.045-3.835h4.233l-1.092,3.675h2.329l-1.494,6.413s8.192,2.215,7.708,11.01c-.2,3.676-.312,2.383-.312,2.383l2.856.591v3.037l-2.856,1.427s2.08,2.833,2.107,3.42l1.883,2.867,2.549,3.167s3.049,3.056,2.639,10.477,58.588,4.242,58.588,4.242l-.936,41.868S758.107,562.928,757.06,566.465Z" transform="translate(100.523 -241.276)"/><g transform="translate(0 7.682)"><path class="a" d="M919.192,526.87s-2.453,6.682-5.842,10.54c-2.269,2.585,9.646,1.386,10.728.5.755-.617-.778-1.9-2.46-4.5A22.376,22.376,0,0,1,919.192,526.87Z" transform="translate(130.978 -232.628)"/><path class="b" d="M918.015,537.432l-.1,11.224" transform="translate(131.923 -230.57)"/></g><g transform="translate(0 7.383)"><path class="a" d="M927.339,527.12s-2.453,6.682-5.842,10.54c-2.27,2.585,9.645,1.387,10.727.5.756-.617-.778-1.9-2.46-4.5A22.357,22.357,0,0,1,927.339,527.12Z" transform="translate(132.565 -232.579)"/><path class="b" d="M926.161,537.682l-.1,11.224" transform="translate(133.511 -230.521)"/></g><g transform="translate(0 7.707)"><path class="a" d="M935.6,526.849s-2.453,6.682-5.842,10.542c-2.27,2.585,9.647,1.386,10.727.5.756-.618-.777-1.9-2.46-4.5A22.4,22.4,0,0,1,935.6,526.849Z" transform="translate(134.177 -232.632)"/><path class="b" d="M934.425,537.412l-.1,11.224" transform="translate(135.121 -230.574)"/></g><g transform="translate(0 7.594)"><path class="a" d="M943.5,526.943s-2.453,6.682-5.842,10.542c-2.27,2.583,9.646,1.386,10.728.5.755-.618-.778-1.9-2.46-4.5A22.376,22.376,0,0,1,943.5,526.943Z" transform="translate(135.716 -232.614)"/><path class="b" d="M942.327,537.506l-.1,11.224" transform="translate(136.661 -230.555)"/></g><g transform="translate(0 7.535)"><path class="a" d="M951.424,526.993s-2.453,6.682-5.842,10.542c-2.269,2.583,9.646,1.386,10.728.5.755-.618-.778-1.9-2.46-4.5A22.377,22.377,0,0,1,951.424,526.993Z" transform="translate(137.26 -232.604)"/><path class="b" d="M950.247,537.556l-.1,11.224" transform="translate(138.205 -230.546)"/></g><g transform="translate(0 7.341)"><path class="a" d="M959.608,527.155s-2.453,6.682-5.842,10.541c-2.27,2.585,9.646,1.386,10.728.5.755-.618-.778-1.9-2.461-4.5A22.4,22.4,0,0,1,959.608,527.155Z" transform="translate(138.855 -232.573)"/><path class="b" d="M958.431,537.718l-.1,11.224" transform="translate(139.801 -230.514)"/></g><g transform="translate(0 7.189)"><path class="a" d="M967.87,527.282s-2.453,6.682-5.842,10.54c-2.269,2.585,9.646,1.387,10.728.5.755-.617-.778-1.9-2.46-4.5A22.373,22.373,0,0,1,967.87,527.282Z" transform="translate(140.466 -232.548)"/><path class="b" d="M966.693,537.844l-.1,11.224" transform="translate(141.411 -230.489)"/></g><g transform="translate(0 7.743)"><path class="a" d="M976.33,526.819s-2.453,6.682-5.842,10.542c-2.269,2.585,9.646,1.386,10.728.5.756-.618-.778-1.9-2.46-4.5A22.376,22.376,0,0,1,976.33,526.819Z" transform="translate(142.114 -232.638)"/><path class="b" d="M975.153,537.382l-.1,11.224" transform="translate(143.06 -230.579)"/></g><g transform="translate(0 7.833)"><path class="a" d="M984.157,526.743s-2.453,6.683-5.842,10.542c-2.27,2.585,9.646,1.386,10.728.5.755-.618-.778-1.9-2.462-4.5A22.4,22.4,0,0,1,984.157,526.743Z" transform="translate(143.64 -232.653)"/><path class="b" d="M982.98,537.306l-.1,11.224" transform="translate(144.585 -230.594)"/></g><g transform="translate(0 7.44)"><path class="a" d="M992.855,527.072s-2.453,6.682-5.842,10.541c-2.27,2.585,9.646,1.386,10.728.5.755-.618-.778-1.9-2.46-4.5A22.38,22.38,0,0,1,992.855,527.072Z" transform="translate(145.335 -232.589)"/><path class="b" d="M991.678,537.635l-.1,11.224" transform="translate(146.28 -230.53)"/></g></g></svg>