<svg xmlns="http://www.w3.org/2000/svg" width="1225.421" height="124.888">
    <defs>
        <style>
            .prefix__a {
                fill: #0e0d0b
            }
        </style>
    </defs>
    <path d="M0 43.149h1225.421v81.737H0V43.149z" />
    <path class="prefix__a"
        d="M38.416 44.009l-.2-5.307s-6.324.982-5.922-7.175 2.409-11.2 5.521-11.991 5.721 1.475 6.926 6.192 3.714 6.192.5 9.043-4.639 2.789-5.219 3.519-.373 5.841-.373 5.841z" />
    <path class="prefix__a"
        d="M25.335 41.709l-.288-7.77s-9.066 1.439-8.491-10.506S20.01 7.027 24.471 5.875s8.2 2.159 9.93 9.067 5.325 9.066.72 13.24-6.651 4.083-7.482 5.152-.535 8.553-.535 8.553z" />
    <path class="prefix__a"
        d="M25.572 41.709l-.288-7.77s-9.066 1.439-8.491-10.506 3.454-16.406 7.915-17.558 8.2 2.159 9.93 9.067 5.325 9.066.72 13.24-6.651 4.083-7.482 5.152-.535 8.553-.535 8.553zM213.774 48.217l-.347-9.986s-10.945 1.85-10.25-13.5 4.169-21.082 9.554-22.561 11.758 2.262 13.842 11.139-.262 16.974-3.1 19.683c-5.589 5.332-5.911 3.09-6.916 4.464s-.645 10.99-.645 10.99z" />
    <path class="prefix__a"
        d="M234.71 42.955l-.258-7.251s-8.133 1.343-7.616-9.8 3.233-16.725 7.235-17.8 9.274 2.508 10.824 8.953-.869 12.876-2.979 14.844c-4.154 3.87-4.392 2.243-5.139 3.241s-.479 7.98-.479 7.98zM290.636 42.758l-.209-5.836s-6.574 1.081-6.156-7.889 2.613-13.462 5.848-14.327 7.5 2.018 8.749 7.207-.7 10.365-2.408 11.948c-3.358 3.115-3.551 1.806-4.155 2.609s-.387 6.423-.387 6.423zM440.589 42.453l-.232-6.461s-7.3 1.2-6.841-8.735 2.9-14.906 6.5-15.864 8.33 2.236 9.721 7.978-.779 11.476-2.675 13.23c-3.729 3.448-3.946 2-4.615 2.888s-.431 7.111-.431 7.111zM510.814 43.123l-.232-6.462a13.822 13.822 0 01-4.381-3.213c-1.15-1.264-2.628-1.933-2.459-5.522.2-4.314-.777-5.2.1-7.717 1.146-3.282 4.579-7.2 6.611-7.739 3.594-.957 8.112 1.828 9.5 7.572s-.78 11.476-2.675 13.229c-3.73 3.45-3.946 2-4.616 2.888s-.43 7.111-.43 7.111zM611.982 43.073l-.154-4.86a9.293 9.293 0 01-2.923-2.416c-.766-.951-1.753-1.454-1.641-4.152.134-3.244-.517-3.909.069-5.8.765-2.469 3.054-5.413 4.41-5.82 2.4-.719 5.412 1.375 6.34 5.7s-.52 8.63-1.785 9.949c-2.488 2.594-2.631 1.5-3.078 2.171s-.288 5.348-.288 5.348zM629.863 43.148l-.215-6.669a12.911 12.911 0 01-4.066-3.317c-1.068-1.3-2.44-2-2.285-5.7.188-4.452-.721-5.364.1-7.965 1.063-3.389 4.25-7.429 6.138-7.988 3.336-.988 7.531 1.887 8.823 7.816s-.724 11.845-2.484 13.654c-3.463 3.561-3.662 2.064-4.285 2.981s-.4 7.34-.4 7.34zM691.583 44.89l-.264-8.375a15.853 15.853 0 01-4.984-4.164c-1.307-1.638-2.99-2.506-2.8-7.158.229-5.591-.883-6.736.118-10 1.3-4.254 5.209-9.329 7.522-10.03 4.089-1.242 9.229 2.369 10.813 9.814s-.886 14.874-3.039 17.144c-4.244 4.471-4.489 2.592-5.252 3.744s-.49 9.217-.49 9.217zM751.916 43.042l-.2-6.744a12.348 12.348 0 01-3.846-3.354c-1.01-1.32-2.307-2.018-2.16-5.764.177-4.5-.681-5.425.092-8.056 1.006-3.426 4.02-7.512 5.8-8.078 3.157-1 7.124 1.908 8.346 7.9s-.685 11.98-2.349 13.81c-3.276 3.6-3.465 2.088-4.053 3.015s-.379 7.423-.379 7.423zM871.304 43.196l-.229-7.437a13.852 13.852 0 01-4.338-3.7c-1.139-1.455-2.6-2.225-2.438-6.356.2-4.966-.768-5.983.1-8.884 1.134-3.778 4.534-8.284 6.547-8.908 3.56-1.1 8.035 2.105 9.413 8.717s-.772 13.21-2.65 15.228c-3.695 3.971-3.907 2.3-4.571 3.324s-.427 8.186-.427 8.186z" />
    <path class="prefix__a"
        d="M886.978 43.407l-.311-9.094a18.544 18.544 0 01-5.872-4.523c-1.54-1.78-3.521-2.722-3.3-7.773.27-6.071-1.04-7.315.139-10.863 1.536-4.621 6.137-10.132 8.862-10.894 4.818-1.347 10.874 2.574 12.738 10.659s-1.044 16.154-3.586 18.621c-5 4.856-5.287 2.814-6.186 4.065s-.577 10.01-.577 10.01zM1062.847 43.258l-.223-6.02a13.338 13.338 0 01-4.222-2.993c-1.109-1.178-2.533-1.8-2.372-5.144.195-4.02-.747-4.843.1-7.19 1.1-3.059 4.413-6.706 6.372-7.21 3.465-.893 7.819 1.7 9.161 7.054s-.752 10.692-2.579 12.326c-3.6 3.213-3.8 1.863-4.45 2.691s-.415 6.625-.415 6.625z" />
    <path class="prefix__a"
        d="M1080.087 44.77l-.306-7.986a18.279 18.279 0 01-5.774-3.972c-1.515-1.562-3.463-2.389-3.242-6.824.265-5.332-1.023-6.424.136-9.538 1.51-4.057 6.034-8.9 8.714-9.565 4.738-1.183 10.693 2.26 12.526 9.359s-1.028 14.184-3.526 16.35c-4.917 4.263-5.2 2.471-6.083 3.57s-.568 8.789-.568 8.789zM898.484 44.336l-.159-4.457a9.469 9.469 0 01-3-2.216c-.787-.872-1.8-1.334-1.685-3.809.137-2.977-.532-3.586.072-5.325.784-2.264 3.134-4.965 4.526-5.339 2.461-.661 5.556 1.262 6.509 5.224s-.534 7.916-1.832 9.127c-2.555 2.379-2.7 1.379-3.161 1.992s-.3 4.906-.3 4.906zM741.974 43.79l-.121-3.5a7.178 7.178 0 01-2.279-1.741 3.237 3.237 0 01-1.28-2.995c.1-2.338-.4-2.818.054-4.183.6-1.779 2.382-3.9 3.439-4.2 1.87-.52 4.222.991 4.945 4.1s-.405 6.222-1.391 7.172c-1.942 1.87-2.053 1.084-2.4 1.566s-.225 3.855-.225 3.855zM371.762 19.829s3.637-7.413 8.429-6 4.3 2.858 4.3 2.858 3.852-3.713 4.772-3.229-.462-.858 1.017.631 3.966 1.357 6.025 4.789c1.518 2.526-.443 3.3.479 3.279.6-.011 2.187-1.361 3.341.467.987 1.563 2.781 2.906 3.546 4.371 1.5 2.869 1.343 5.678-.472 7.836a9.36 9.36 0 01-3 1.6l.109 6.767-2.544-.008-.2-5.9s-4.164-.38-4.493-2.313-2.33-.22-2.33-.22l-.165 7.9-2.153.368-.251-8.154s-2.335-1.451-3.821-.818a9.51 9.51 0 01-3.889.354l-.289 8.51-2.407.36-.152-8.431a8.015 8.015 0 01-5.182-3.09c-1.9-2.892-2.1-8.05-1.8-9.276.558-2.342 1.13-2.651 1.13-2.651zM410.862 42.562l-1.968-1.792-.109-2.413-2.019-1.026-.194-3.2-1.238-1.957.493-3.09 1.953-.323-.127-4.951c2.166-2.542-.4-3.232 1.292-5.005a6.094 6.094 0 001.351-4.5c3.394-3.615 1.874-5.124 1.874-5.124s1.767-2.254 3.229-2.585 1.833-2.665 1.833-2.665l.513-1.39a5.033 5.033 0 001.426 3.006 10.707 10.707 0 002.384 2.211l-.165 1.782a3.728 3.728 0 001.36 1.458c.964.591.882 2.794.882 2.794s-1.169.106.517.93-.249 2.313-.249 2.313l1.771.268a31.109 31.109 0 00.7 4.034 1.783 1.783 0 002.282.3c1.243-.562.378 4.072.378 4.072s.443-.253 1.642.255.774 2.053.68 2.607a6.138 6.138 0 01-.981 1.679l1.064 3.212s-3.3 1.083-2.476 1.7-.118 1.992-.118 1.992-2.949.123-2.261 1.006a3.28 3.28 0 01.35 2.374s-1.488.655-.968 1.635-.416 1.072-.416 1.072l-.519 2.391-13.057.981z" />
    <path class="prefix__a"
        d="M411.663 41.75l-1.968-1.792-.108-2.411-2.019-1.026-.195-3.2-1.237-1.957.492-3.091 1.952-.323-.125-4.949c2.165-2.542-.4-3.233 1.291-5.005a6.1 6.1 0 001.351-4.5c3.394-3.615 1.874-5.125 1.874-5.125s1.768-2.252 3.229-2.583 1.834-2.666 1.834-2.666l.513-1.39a5.027 5.027 0 001.424 3.008 10.689 10.689 0 002.385 2.211l-.166 1.782a3.74 3.74 0 001.36 1.458c.965.591.883 2.794.883 2.794s-1.169.106.516.93-.249 2.313-.249 2.313l1.771.268a31.134 31.134 0 00.7 4.034 1.781 1.781 0 002.281.3c1.244-.56.379 4.073.379 4.073s.443-.254 1.641.255.775 2.052.681 2.606a6.18 6.18 0 01-.981 1.68l1.067 3.22s-3.3 1.084-2.475 1.7-.119 1.993-.119 1.993-2.949.123-2.261 1.006a3.282 3.282 0 01.351 2.374s-1.489.655-.968 1.635-.417 1.072-.417 1.072l-.517 2.391-13.058.981zM469.004 41.385l-1.014-1-.055-1.348-1.042-.574-.1-1.788-.637-1.093.253-1.727 1.007-.18-.066-2.766c1.117-1.419-.206-1.805.666-2.8a3.624 3.624 0 00.7-2.516c1.749-2.018.965-2.862.965-2.862s.912-1.259 1.664-1.445.945-1.489.945-1.489l.265-.777a2.932 2.932 0 00.734 1.68 5.7 5.7 0 001.23 1.236l-.085 1a2.033 2.033 0 00.7.814c.5.331.454 1.562.454 1.562s-.6.06.266.52-.128 1.292-.128 1.292l.913.149a18.8 18.8 0 00.36 2.255.872.872 0 001.177.165c.64-.313.195 2.276.195 2.276s.228-.142.846.142.4 1.147.35 1.457a3.479 3.479 0 01-.505.938l.551 1.8s-1.7.606-1.276.95-.061 1.114-.061 1.114-1.521.068-1.166.562a1.969 1.969 0 01.18 1.326s-.767.367-.5.914-.215.6-.215.6l-.266 1.336-6.732.547z" />
    <path class="prefix__a"
        d="M483.297 41.306l-1.642-1.35-.091-1.816-1.685-.773-.161-2.411-1.032-1.474.411-2.328 1.63-.244-.106-3.728c1.808-1.915-.333-2.435 1.078-3.771a4.265 4.265 0 001.127-3.392c2.831-2.722 1.563-3.86 1.563-3.86a6.819 6.819 0 012.695-1.947c1.219-.248 1.529-2.009 1.529-2.009l.428-1.047a3.6 3.6 0 001.188 2.266 8.737 8.737 0 001.99 1.666l-.139 1.342a2.926 2.926 0 001.135 1.1c.8.446.736 2.1.736 2.1s-.975.08.431.7-.208 1.742-.208 1.742l1.477.2a21.417 21.417 0 00.582 3.04 1.6 1.6 0 001.9.223c1.037-.422.315 3.069.315 3.069s.37-.191 1.369.191.646 1.546.568 1.964a4.579 4.579 0 01-.817 1.265l.89 2.426s-2.753.816-2.066 1.281-.1 1.5-.1 1.5-2.46.093-1.887.759a2.254 2.254 0 01.293 1.788s-1.242.494-.808 1.232-.347.808-.347.808l-.433 1.8-10.893.739zM451.03 40.51l-1.764-1.576-.1-2.12-1.81-.9-.173-2.814-1.109-1.721.441-2.717 1.751-.284-.112-4.352c1.941-2.234-.36-2.841 1.157-4.4a5.279 5.279 0 001.212-3.959c3.042-3.177 1.68-4.5 1.68-4.5s1.584-1.981 2.894-2.272 1.644-2.344 1.644-2.344l.459-1.221a4.379 4.379 0 001.277 2.643 9.541 9.541 0 002.138 1.944l-.148 1.567a3.3 3.3 0 001.219 1.281c.865.521.791 2.457.791 2.457s-1.048.093.464.817-.223 2.034-.223 2.034l1.588.235a26.835 26.835 0 00.625 3.546 1.618 1.618 0 002.046.262c1.114-.493.338 3.581.338 3.581s.4-.224 1.472.223.694 1.8.609 2.292a5.392 5.392 0 01-.878 1.477l.956 2.832s-2.957.952-2.219 1.495-.106 1.752-.106 1.752-2.643.109-2.027.884a2.837 2.837 0 01.314 2.088s-1.334.576-.867 1.437-.374.943-.374.943l-.464 2.1-11.705.862z" />
</svg>