<svg xmlns="http://www.w3.org/2000/svg" width="1223.604" height="291.261" viewBox="0 0 1223.604 291.261"><defs><style>.a{fill:#22333b;opacity:0.263;}.b{fill:#e94f37;}</style></defs><path class="a" d="M4.621,379.062s85.749,15.406,154.294-26.441c4.18-2.552,11.924,10.482,11.924,10.482s26-7.523,37.709-8.2c9.854-.569,32.858,7.177,57.215,8.789s34.473-3.6,40.211-2.338c53.4,11.711,77.136,4.226,77.136,4.226s19.243-12.66,27.445-13.328c6.548-.534,44.069,3.263,59.682-2.691,15.929-6.075,71.783-20.742,71.783-20.742s18.543-11.192,41.609-12.22c18.27-.815,30.419-.566,30.419-.566s22.2-5.64,39.455-7.641c21.731-2.521,47.9,2.462,47.9,2.462l43.353,7.738s9.587,2.809,35.416,15.668c22.794,11.347,44.877,16.094,74.01,21.023s19.165,3.783,42.521-1.3c30.391-6.619,27.76-12.337,50.454-21.016s18.936-10.441,40.321-13.7,45.223.66,45.223.66,23.346,8.773,43.715,8.21c27.915-.771,32.676-11.6,42.626-11.705,9.522-.105,29.872,6.225,54.021,9.5s51.125,4.948,51.125,4.948l.824,265.269L4.1,593.822Z" transform="translate(-1.406 -307.679)"/><path class="a" d="M100.894,373.066s13.295-8.7,34.7-12.106,22.765-2.317,30.673,2.454,6.952-2.863,23.993,3,65.376,14.638,93.834,22.92,20,10.207,20,10.207l-20.981-.429-39.4-8.822L213.3,391.6s-44.99-10.6-49.352-9.239-25.492-12.406-37.9-7.771-50.44.955-50.44.955Z" transform="translate(12.531 -297.68)"/><path class="a" d="M380.425,374.192c1,3.6-6.092,5.209-6.092,5.209s6.9,3.669,14.633,6.8c9.283,3.756,19.415,7.162,15.619,8.327-7.236,2.219-52.788,3.3-52.788,3.3l-39.078-10.84L276.971,372.56s-26.912-4.657-28.01-5.091.049-4.3-2.246-5.081c-8.434-2.87-32.108-4.391-32.108-4.391l39.535-2.456s19.393,7,39.216,7.8c19.453.783,39.53,2.016,39.53,2.016l31.513,2.528S379.409,370.529,380.425,374.192Z" transform="translate(39.623 -298.35)"/><path class="a" d="M366.206,373.769s25.117-10.434,37.676-11.642,11.471,6.628,11.471,6.628l28.023-1.044,18.758,10.341,14.288,6.086-58.908-4.8-11.641.452-16.649-6.4Z" transform="translate(69.171 -297.091)"/><path class="a" d="M392.718,389.027l16.325-2.208,14.787,6.423,25.364-1.7,20.443,2.679,22.253-15.294,62.421.706,3.278,8.176,14.362-.7,14.662,4.652,34.312-2.2-1.79,7.2-17.419,5.758-33.763.676-26.283,3.4-14.4,7-48.866-8.313-34.763-1.253-17.274-1.27L413.2,397.164Z" transform="translate(74.339 -293.793)"/><path class="a" d="M418.945,353.437l16.9-6.141a29.352,29.352,0,0,1,9.59-.7,41.841,41.841,0,0,1,10.329,2.857s8,5.176,15.567,10.178,5.08,6.623,14.716,9.833c19.641,6.539,21.794,5.813,21.794,5.813s-4.989,3.578-8.867,3.144c-7.754-.866-10.694-1.7-21.521-5.929a157.536,157.536,0,0,1-21.789-11.006,29.932,29.932,0,0,0-7.214-4.781,45.972,45.972,0,0,0-9.439-2.851Z" transform="translate(79.451 -300.121)"/><path class="a" d="M488.673,331.212l20.082.246-9.127,9.381s8.356.6,10.139,2.861c2.269,2.871,4.038,6.578,4.009,10.117-.012,1.48-3.648,2.743-9.532,2.489-7.512-.326-19.43-5.789-19.43-5.789s-6.159-3.96-5.811-8.237a9.2,9.2,0,0,1,3.42-6.452Z" transform="translate(91.154 -303.092)"/><path class="a" d="M653.341,383.84s10.543,1.81,35.9-7.074c18.2-6.377,66.856-23.449,71.619-22.633s-52.566,25.9-52.566,25.9l48.44-7.376,61.06,8.131,37.759-12.158s47.672,5.684,63.373.434c10.05-3.36-15.364-13.716-15.364-13.716s18.445,6.5,38.066,3.549c30.911-4.654,41.031,3.057,41.031,3.057l41.066,10.224L1056.61,382.6s-50.081-7.148-57.116-7.633c-15.584-1.072-35.574-5.763-35.574-5.763s-13.276.871-25.312,12.186c-10.844,10.194-18.6,13.169-28.547,13.181-16.283.019-29.156-7.842-44.985-5.933s-21.243,10.508-38.643,10.515c-26.707.012-68.184-9.587-68.184-9.587s-22.029-.523-36.714.587c-17.993,1.36-21.81,6.1-21.81,6.1s-14.351,4.518-28.371,7.247c-13.679,2.663-18.931-.737-30.994-.805s-17.474-1.38-17.474-1.38a219.918,219.918,0,0,0,21.941-5.329,104.481,104.481,0,0,0,16.689-6.881Z" transform="translate(119.201 -298.63)"/><path class="b" d="M2.682,445.264s5.534,9.617,37.555,9.981,55.877-2.771,70.593-2.476,117.409,8.8,127.545,6.689c4.685-.977,33.156-11.285,63.34-23.773,35.118-14.529,60.885-20.549,75.976-34.437,3.283-3.022,16.683,10.25,26.631,9.164,24.323-2.656,69.114,12.049,69.114,12.049s24.841,6.831,68.878,4.813c8.669-.4,18-.791,47.479-2.868,7.133-.5,4.132,3.76,19.536,11.344,15.266,7.516,36.882,1.963,58.3,4.447,30.146,3.5,22.1,11.995,56.408,15.263,113.172,10.785,396.222-1.2,396.222-1.2s13.634-2.933,39.173.678c2.114.3,7.459,5.494,17.511,6.473,6.822.664,14.686,3.115,22.455,3.517a164.009,164.009,0,0,0,26.054-.906l-.012,116.749L1.846,580.789Z" transform="translate(-1.846 -289.529)"/></svg>