<svg xmlns="http://www.w3.org/2000/svg" width="1095.012" height="422.332">
    <defs>
        <style>
            .prefix__b {
                fill: #22333b;
                opacity: .263
            }
        </style>
    </defs>
    <path
        d="M240.178 0c32.251 0 58.394 25.365 58.394 56.655v.869c0 31.29-26.143 56.655-58.394 56.655s-58.4-25.365-58.4-56.655v-.869C181.783 25.365 207.928 0 240.178 0z"
        fill="#ead946" opacity=".661" />
    <path class="prefix__b"
        d="M660.991 387.924s130.818 20.423 148.74 16.793-73.385 19.759-92.867 17.45-42.805-20.066-48.939-21.011M356.373 283.182a4.044 4.044 0 00-3.794 4.25 4.293 4.293 0 001.785 3.5h-11.981c-2.923 0-5.287 2.07-5.287 4.625s2.365 4.626 5.287 4.626h117.751c2.922 0 5.287-2.068 5.287-4.626s-2.366-4.625-5.287-4.625h-17.391a4.3 4.3 0 001.767-3.5 4.044 4.044 0 00-3.794-4.25zm-24.463 17.017c-2.923 0-5.287 2.07-5.287 4.625s2.365 4.641 5.287 4.641h117.752c2.922 0 5.287-2.084 5.287-4.641s-2.366-4.625-5.287-4.625zM1016.446 312.049c-.823 0-1.491 1.356-1.491 3.029a4.2 4.2 0 00.7 2.495h-4.709c-1.148 0-2.078 1.475-2.078 3.3s.93 3.3 2.078 3.3h46.275c1.149 0 2.078-1.475 2.078-3.3s-.929-3.3-2.078-3.3h-6.832a4.232 4.232 0 00.694-2.495c0-1.673-.668-3.029-1.49-3.029zm1.964 11.778c-1.148 0-2.078 1.476-2.078 3.3s.93 3.309 2.078 3.309h46.275c1.148 0 2.078-1.486 2.078-3.309s-.93-3.3-2.078-3.3zM1012.993 119.207c-1.189 0-2.154 2.132-2.154 4.761a7.022 7.022 0 001.013 3.919h-6.8c-1.66 0-3 2.318-3 5.182s1.343 5.181 3 5.181h66.862c1.66 0 3-2.318 3-5.181s-1.343-5.182-3-5.182h-9.875a7.075 7.075 0 001-3.919c0-2.629-.965-4.761-2.154-4.761zm-12.817 19.06c-2.252 0-4.075 2.317-4.075 5.181s1.822 5.2 4.075 5.2h90.764c2.252 0 4.075-2.334 4.075-5.2s-1.822-5.181-4.075-5.181zM18.021 357.612c-5.178 0-9.391 2.329-9.63 5.248-2.021.057-3.634 1.115-3.634 2.42s1.627 2.371 3.662 2.419H4.571c-2.525 0-4.57 1.31-4.57 2.922s2.045 2.917 4.57 2.917h27.967c2.525 0 4.57-1.3 4.57-2.917s-2.045-2.922-4.57-2.922h-.573c2.034-.048 3.662-1.109 3.662-2.419 0-1.341-1.7-2.429-3.8-2.429h-1.031c-.247-2.914-4.457-5.238-9.63-5.238zM36.543 50.532c-3.629 0-6.575 2.315-6.575 5.166s2.947 5.153 6.575 5.153h9.734a4.081 4.081 0 00-2.933 3.609 3.649 3.649 0 001.483 2.849H33.706c-4.057 0-7.349 2.586-7.349 5.774s3.292 5.774 7.349 5.774h124.11c4.057 0 7.349-2.586 7.349-5.774s-3.292-5.774-7.349-5.774h-36.745a3.65 3.65 0 001.483-2.849c0-2.232-2.3-4.039-5.142-4.039h-14.358c2.329-.794 3.965-2.6 3.965-4.723 0-2.851-2.931-5.166-6.559-5.166zM625.76 61.942c-5.145 0-9.307 4.767-9.307 10.636s4.162 10.636 9.307 10.636h9.373c-3.245 1.974-5.492 5.067-5.492 8.759 0 4.972 3.917 9.007 9.176 10.323h-17.99c-7.3 0-13.221 5.12-13.221 11.433s5.921 11.432 13.221 11.432h205.255c7.3 0 13.222-5.12 13.222-11.432s-5.921-11.435-13.222-11.435h-19.338c5.259-1.316 9.176-5.352 9.176-10.323 0-6.026-5.659-10.892-12.629-10.892h-74.755a10.872 10.872 0 004.013-8.5c0-5.869-4.2-10.636-9.341-10.636zM444.171 91.32c-.588 0-1.069.7-1.069 1.567a1.818 1.818 0 00.439 1.214h-2.778a1.8 1.8 0 100 3.55h49.2a1.8 1.8 0 100-3.55h-19.577a1.82 1.82 0 00.429-1.214c0-.862-.473-1.567-1.061-1.567z" />
</svg>