<svg xmlns="http://www.w3.org/2000/svg" width="80" height="80">
  <path d="M40 0A40 40 0 110 40 40 40 0 0140 0z" fill="#222b30" />
  <path
    d="M40 76a36.158 36.158 0 01-8.591-1.031 35.825 35.825 0 01-7.846-2.931 36.333 36.333 0 01-12.475-10.583v-1.722c.342.5.721 1.024 1.128 1.557v-2.655a13.058 13.058 0 001.267 1.542v1.822h-.708a35.239 35.239 0 002.922 3.188 2.416 2.416 0 012.373-1.349 2.423 2.423 0 012.272 1.165 5.641 5.641 0 01.588 2.882 9.492 9.492 0 01-.094 1.407 35.01 35.01 0 001.813 1.112 6.676 6.676 0 01-.388-2.519 5.65 5.65 0 01.588-2.882 2.479 2.479 0 01.437-.544c.334.02.684.03 1.041.03a17.383 17.383 0 002.458-.172 2.366 2.366 0 01.607.687 5.65 5.65 0 01.588 2.882c0 2.53-.735 3.818-2.315 4.054a34.9 34.9 0 005.917 2.042h.2v.048c.506.122 1.032.236 1.563.338v-.387h2.288v.748c.5.064 1.03.118 1.562.16v-.908h2.288v1.014H40a35.2 35.2 0 001.83-.047 2.43 2.43 0 012.24-1.114 2.6 2.6 0 011.873.658 34.732 34.732 0 0010.576-3.633V65.12H55.5v-1.143h2.288v6.169a34.174 34.174 0 002.584-1.686v-3.34h-1.023v-1.143h2.289v3.533c.891-.7 1.761-1.459 2.584-2.248v-.142h-1.023v-1.143h2.288v.011a35.519 35.519 0 002.48-2.941 5.216 5.216 0 01-.753-3.165A5.638 5.638 0 0167.802 55a2.421 2.421 0 012.271-1.166 2.632 2.632 0 011.819.61 34.788 34.788 0 002.4-7.417 5.941 5.941 0 01.243-1.316 35.2 35.2 0 00.449-4.7 5.307 5.307 0 01-.724-3.126 6.309 6.309 0 01.428-2.574 34.835 34.835 0 00-1.761-7.2c-.047 2.64-.956 3.869-2.858 3.869-1.951 0-2.859-1.3-2.859-4.091a5.633 5.633 0 01.588-2.883 2.421 2.421 0 012.271-1.166 3.161 3.161 0 011.07.168c-.358-.7-.738-1.378-1.13-2.027-1.888-.027-2.778-1.3-2.8-3.994a34.647 34.647 0 00-1.728-1.976v5.992h-1.264v-6.876h-1.023v-1.143h.216a35.44 35.44 0 00-2.407-1.981h-.636v-.466a35.495 35.495 0 00-2.584-1.686v2.152h-1.266V9.137a35.107 35.107 0 00-2.537-1.23c0 2.779-.913 4.073-2.86 4.073s-2.86-1.3-2.86-4.091a7.927 7.927 0 01.188-1.861 35.489 35.489 0 00-1.824-.4 6.983 6.983 0 01.3 2.261c0 2.791-.909 4.091-2.86 4.091s-2.86-1.3-2.86-4.091a5.722 5.722 0 01.566-2.843 35.401 35.401 0 00-1.775-.044h-.517v7h-1.266V5.126H37.2v-.013c-.5.039-1.028.092-1.562.158v6.731h-1.266V5.453c-.853.137-1.722.311-2.585.519v6.031h-1.266v-5.7c-.854.24-1.717.518-2.562.827.017.249.025.505.025.759 0 2.791-.908 4.091-2.859 4.091a2.535 2.535 0 01-2.686-2.258 35.007 35.007 0 00-2.484 1.587 2.162 2.162 0 01-.544.39 35.2 35.2 0 00-5.925 5.458v4.847h-1.267v-3.29a34.637 34.637 0 00-1.128 1.557v-1.406h-.232A36.327 36.327 0 0123.391 8.057a35.8 35.8 0 017.923-3 36.152 36.152 0 018.689-1.056A35.779 35.779 0 0154.016 6.83a35.877 35.877 0 0111.442 7.715 35.881 35.881 0 017.716 11.443A35.766 35.766 0 0176.003 40a35.772 35.772 0 01-2.829 14.013 35.881 35.881 0 01-7.716 11.443 35.877 35.877 0 01-11.442 7.715A35.779 35.779 0 0140 76zM25.122 64.981c-1.5 0-1.628 1.5-1.628 2.9 0 1.492.126 2.949 1.628 2.949s1.627-1.457 1.627-2.949c0-1.401-.126-2.899-1.627-2.899zm-7.052 0a1.383 1.383 0 00-1.432 1.082 35.553 35.553 0 003.046 2.441c.009-.174.013-.365.013-.619.003-1.405-.126-2.903-1.627-2.903zm52-10c-1.5 0-1.627 1.5-1.627 2.9a5.55 5.55 0 00.285 2.111 34.755 34.755 0 002.591-4.354 1.334 1.334 0 00-1.25-.656zm0-30c-1.5 0-1.627 1.5-1.627 2.9 0 1.491.125 2.948 1.627 2.948s1.629-1.456 1.629-2.948c.001-1.399-.126-2.899-1.63-2.899zm-1.335-4.972a1.514 1.514 0 00.311.457 23.886 23.886 0 00-.265-.394zM49.617 6.336a7.619 7.619 0 00-.124 1.549c0 1.491.126 2.948 1.628 2.948s1.627-1.456 1.627-2.948c0-.174 0-.336-.008-.5a34.416 34.416 0 00-3.124-1.053zm-6.3-1.182c-.767.417-.872 1.559-.872 2.731 0 1.491.126 2.948 1.628 2.948s1.628-1.456 1.628-2.948a3.739 3.739 0 00-.586-2.516c-.6-.088-1.206-.16-1.8-.215zM26.751 7.595a35.094 35.094 0 00-3.2 1.5c.15 1.2.634 1.737 1.57 1.737 1.5 0 1.627-1.456 1.627-2.948v-.146-.144zM39.487 72h-1.266v-6.876H37.2v-1.143h2.288v8.018zm-3.85 0h-1.266v-6.876h-1.022v-1.143h2.288v8.018zm-3.851 0H30.52v-6.876H29.5v-1.143h2.288v8.018zm19.339-.023c-1.952 0-2.86-1.3-2.86-4.094a5.65 5.65 0 01.588-2.882 2.426 2.426 0 012.272-1.165 2.425 2.425 0 012.271 1.165 5.65 5.65 0 01.588 2.882c-.003 2.794-.911 4.095-2.862 4.095zm0-7c-1.5 0-1.628 1.5-1.628 2.9 0 1.492.126 2.949 1.628 2.949s1.627-1.457 1.627-2.949c-.003-1.397-.129-2.895-1.63-2.895zm-7.052 7c-1.952 0-2.86-1.3-2.86-4.094a5.641 5.641 0 01.588-2.882 2.426 2.426 0 012.272-1.165 2.423 2.423 0 012.271 1.165 5.638 5.638 0 01.588 2.882c-.002 2.794-.911 4.095-2.862 4.095zm0-7c-1.5 0-1.628 1.5-1.628 2.9 0 1.492.126 2.949 1.628 2.949s1.628-1.457 1.628-2.949c-.001-1.397-.129-2.895-1.631-2.895zm21.413-2.982h-1.264v-6.874h-1.023v-1.145h2.288v8.018zm-3.849 0h-1.266v-6.874h-1.023v-1.145h2.289v8.018zm-3.85 0h-1.266v-6.874H55.5v-1.145h2.288v8.018zm-18.3 0h-1.266v-5.859a17.1 17.1 0 00.908-2.16h.357v8.018zm-3.85 0h-1.266v-.983a14.808 14.808 0 001.266-1.184v2.166zm15.488-.021c-1.952 0-2.86-1.3-2.86-4.092A5.65 5.65 0 0148.853 55a2.425 2.425 0 012.272-1.166A2.424 2.424 0 0153.396 55a5.65 5.65 0 01.588 2.882c-.003 2.795-.911 4.096-2.862 4.096zm0-7c-1.5 0-1.628 1.5-1.628 2.9 0 1.491.126 2.948 1.628 2.948s1.627-1.456 1.627-2.948c-.003-1.393-.129-2.892-1.63-2.892zm-7.052 7c-1.952 0-2.86-1.3-2.86-4.092A5.641 5.641 0 0141.801 55a2.425 2.425 0 012.272-1.166A2.421 2.421 0 0146.344 55a5.638 5.638 0 01.588 2.882c-.002 2.795-.911 4.096-2.862 4.096zm0-7c-1.5 0-1.628 1.5-1.628 2.9 0 1.491.126 2.948 1.628 2.948s1.628-1.456 1.628-2.948c-.001-1.393-.129-2.892-1.631-2.892zm-20.6 5.785c-.22 0-.44-.005-.655-.016a5.906 5.906 0 01-.556-2.865 5.65 5.65 0 01.588-2.882 2.426 2.426 0 012.273-1.166 2.421 2.421 0 012.271 1.166 5.65 5.65 0 01.588 2.882 7.392 7.392 0 01-.277 2.206 12.534 12.534 0 01-1.613.429c.607-.519.658-1.632.658-2.635 0-1.4-.126-2.9-1.627-2.9s-1.628 1.5-1.628 2.9c0 1.241.078 2.482 1.015 2.844-.344.033-.692.045-1.038.045zm-2.942-.336c-.4-.1-.791-.208-1.163-.336a4.991 4.991 0 00.331-2.21c0-1.4-.126-2.9-1.627-2.9s-1.628 1.5-1.628 2.9c0 .282.005.525.016.74a11.643 11.643 0 01-1.247-1 5.338 5.338 0 01.587-2.622 2.421 2.421 0 012.271-1.166 2.422 2.422 0 012.272 1.166 5.641 5.641 0 01.588 2.882 6.622 6.622 0 01-.4 2.545zm9.987-1.741v-3.565H29.5v-1.145h2.288v3.7a11.053 11.053 0 01-1.264 1zm-17.033-3.055a12.491 12.491 0 01-.961-1.652h.963v1.655zm20.38-.51h-.519v-1.145h1.128c-.183.389-.388.773-.609 1.144zm-26.986-1a35.764 35.764 0 01-2.878-14.129 35.768 35.768 0 012.88-14.133v2.786a34.9 34.9 0 00-1.365 5.328h.269v8.018h-.729c.037.653.093 1.32.168 1.982h.561v3.419a34.66 34.66 0 001.1 3.946v2.783zm58.6-2.128h-1.264v-6.876h-1.023v-1.145h2.288v8.019zm-3.849 0h-1.266v-6.876h-1.023v-1.145h2.289v8.019zm-3.85 0h-1.266v-6.876H55.5v-1.145h2.288v8.019zm-22.566 0h-.85v-6.876h-1.022v-1.145h2.211c.026.137.051.28.077.435v5.73a15.5 15.5 0 01-.416 1.854zm-3.435 0h-1.266v-6.876H29.5v-1.145h2.288v8.019zm-18.3 0h-1.267v-6.876h-.988c.051-.39.116-.774.192-1.145h2.062v8.019zm56.585-.021c-1.951 0-2.859-1.3-2.859-4.094a5.631 5.631 0 01.588-2.882 2.421 2.421 0 012.271-1.166 2.422 2.422 0 012.271 1.166 5.631 5.631 0 01.588 2.882c.006 2.804-.902 4.105-2.854 4.105zm0-7c-1.5 0-1.627 1.5-1.627 2.9 0 1.492.125 2.949 1.627 2.949s1.629-1.457 1.629-2.949c.007-1.387-.12-2.886-1.624-2.886zm-18.948 7c-1.952 0-2.86-1.3-2.86-4.094a5.643 5.643 0 01.588-2.882 2.425 2.425 0 012.272-1.166 2.425 2.425 0 012.271 1.166 5.643 5.643 0 01.588 2.882c.006 2.804-.902 4.105-2.853 4.105zm0-7c-1.5 0-1.628 1.5-1.628 2.9 0 1.492.126 2.949 1.628 2.949s1.627-1.457 1.627-2.949c.006-1.387-.12-2.886-1.621-2.886zm-7.052 7c-1.952 0-2.86-1.3-2.86-4.094a5.634 5.634 0 01.588-2.882 2.425 2.425 0 012.272-1.166 2.422 2.422 0 012.271 1.166 5.631 5.631 0 01.588 2.882c.007 2.804-.902 4.105-2.853 4.105zm0-7c-1.5 0-1.628 1.5-1.628 2.9 0 1.492.126 2.949 1.628 2.949s1.628-1.457 1.628-2.949c.008-1.387-.12-2.886-1.622-2.886zm-18.948 7c-1.952 0-2.861-1.3-2.861-4.094a5.643 5.643 0 01.588-2.882 2.426 2.426 0 012.273-1.166 2.421 2.421 0 012.271 1.166 5.643 5.643 0 01.588 2.882c.006 2.804-.902 4.105-2.853 4.105zm0-7c-1.5 0-1.628 1.5-1.628 2.9 0 1.492.126 2.949 1.628 2.949s1.627-1.457 1.627-2.949c.006-1.387-.12-2.886-1.621-2.886zm-7.052 7c-1.952 0-2.861-1.3-2.861-4.094a5.634 5.634 0 01.59-2.882 2.422 2.422 0 012.271-1.166 2.422 2.422 0 012.272 1.166 5.634 5.634 0 01.588 2.882c.007 2.804-.902 4.105-2.854 4.105zm0-7c-1.5 0-1.628 1.5-1.628 2.9 0 1.492.125 2.949 1.628 2.949s1.627-1.457 1.627-2.949c.009-1.387-.12-2.886-1.621-2.886zm47.412-2.984h-1.264v-6.873h-1.023v-1.145h2.288v8.017zm-3.849 0h-1.266v-6.873h-1.023v-1.145h2.289v8.017zm-3.85 0h-1.266v-6.873H55.5v-1.145h2.288v8.017zm-22.743 0h-.673V40.36a13.1 13.1 0 01.672 1.623zm-3.258 0H30.51v-6.051a11.165 11.165 0 011.266.986v5.064zm-18.3 0h-1.267v-.611a12.731 12.731 0 011.267-2.328v2.938zm56.585-.021c-1.951 0-2.859-1.3-2.859-4.091a5.641 5.641 0 01.588-2.883 2.421 2.421 0 012.271-1.166 2.425 2.425 0 012.271 1.166 5.641 5.641 0 01.588 2.883c.009 2.805-.899 4.105-2.851 4.105zm0-7c-1.5 0-1.627 1.5-1.627 2.9 0 1.491.125 2.948 1.627 2.948s1.629-1.456 1.629-2.948c.01-1.382-.117-2.881-1.621-2.881zm-18.948 7c-1.952 0-2.86-1.3-2.86-4.091a5.654 5.654 0 01.588-2.883 2.425 2.425 0 012.272-1.166 2.425 2.425 0 012.271 1.166 5.654 5.654 0 01.588 2.883c.009 2.805-.899 4.105-2.85 4.105zm0-7c-1.5 0-1.628 1.5-1.628 2.9 0 1.491.126 2.948 1.628 2.948s1.627-1.456 1.627-2.948c.009-1.382-.117-2.881-1.618-2.881zm-7.052 7c-1.952 0-2.86-1.3-2.86-4.091a5.645 5.645 0 01.588-2.883 2.425 2.425 0 012.272-1.166 2.422 2.422 0 012.271 1.166 5.641 5.641 0 01.588 2.883c.01 2.805-.899 4.105-2.85 4.105zm0-7c-1.5 0-1.628 1.5-1.628 2.9 0 1.491.126 2.948 1.628 2.948s1.628-1.456 1.628-2.948c.011-1.382-.117-2.881-1.619-2.881zm-18.948 7c-1.952 0-2.861-1.3-2.861-4.091a5.654 5.654 0 01.588-2.883 2.24 2.24 0 011.382-1.057 13.612 13.612 0 012.555.372 2.361 2.361 0 01.606.685 5.654 5.654 0 01.588 2.883c.01 2.805-.898 4.105-2.849 4.105zm0-7c-1.5 0-1.628 1.5-1.628 2.9 0 1.491.126 2.948 1.628 2.948s1.627-1.456 1.627-2.948c.009-1.382-.117-2.881-1.618-2.881zm-7.052 7c-1.952 0-2.861-1.3-2.861-4.091 0-.3.011-.584.032-.845a11.758 11.758 0 011.451-1.131 5.634 5.634 0 00-.25 1.976c0 1.491.125 2.948 1.628 2.948s1.627-1.456 1.627-2.948c0-1.3-.1-2.708-1.349-2.886a12.054 12.054 0 011.53-.564 2.4 2.4 0 01.463.567 5.645 5.645 0 01.588 2.883c.011 2.805-.898 4.105-2.85 4.105zm21.411-.234a17.391 17.391 0 00-1.264-3.307v-3.31H37.2v-1.145h2.288v7.761zm-27.264-5.608v-1.009h-1.022v-1.145h2.289v.607a13.555 13.555 0 00-1.265 1.543zm23.416-1.357a14.754 14.754 0 00-.828-.795h.829v.8zm29.849-2.778h-1.264V25.11h-1.023v-1.143h2.288v8.018zm-3.849 0h-1.266V25.11h-1.023v-1.143h2.289v8.018zm-3.85 0h-1.266V25.11H55.5v-1.143h2.288v8.018zm-18.3 0h-1.266V25.11H37.2v-1.143h2.288v8.018zm-3.85 0h-1.266V25.11h-1.022v-1.143h2.288v8.018zm-22.149 0h-1.267V25.11h-1.022v-1.143h2.289v8.018zm37.638-.021c-1.952 0-2.86-1.3-2.86-4.091a5.645 5.645 0 01.588-2.883 2.425 2.425 0 012.272-1.166 2.424 2.424 0 012.271 1.166 5.645 5.645 0 01.588 2.883c.009 2.804-.899 4.104-2.85 4.104zm0-7c-1.5 0-1.628 1.5-1.628 2.9 0 1.491.126 2.948 1.628 2.948s1.627-1.456 1.627-2.948c.009-1.383-.117-2.883-1.618-2.883zm-7.052 7c-1.952 0-2.86-1.3-2.86-4.091a5.637 5.637 0 01.588-2.883 2.425 2.425 0 012.272-1.166 2.421 2.421 0 012.271 1.166 5.633 5.633 0 01.588 2.883c.01 2.804-.899 4.104-2.85 4.104zm0-7c-1.5 0-1.628 1.5-1.628 2.9 0 1.491.126 2.948 1.628 2.948s1.628-1.456 1.628-2.948c.011-1.383-.117-2.883-1.619-2.883zm-12.287 6.939c-.405-.207-.831-.4-1.264-.573v-6.224H29.5v-1.143h2.288v7.941zm-14.635-.062a2.259 2.259 0 01-1.463-1.263 6.242 6.242 0 01-.475-2.709 5.635 5.635 0 01.59-2.883 2.421 2.421 0 012.271-1.166 2.422 2.422 0 012.272 1.166 5.637 5.637 0 01.588 2.883 6.126 6.126 0 01-.5 2.765 14.61 14.61 0 00-3.28 1.208zm.923-6.877c-1.5 0-1.628 1.5-1.628 2.9 0 1.491.125 2.948 1.628 2.948s1.627-1.456 1.627-2.948c.011-1.383-.118-2.883-1.619-2.883zm9.482 5.513c-.414-.076-.84-.138-1.266-.185a4.342 4.342 0 00.463-2.424c0-1.405-.126-2.9-1.627-2.9s-1.628 1.5-1.628 2.9a4.7 4.7 0 00.4 2.324c-.436.01-.868.036-1.286.078a6.943 6.943 0 01-.344-2.4 5.645 5.645 0 01.588-2.883 2.426 2.426 0 012.273-1.166 2.421 2.421 0 012.271 1.166 5.645 5.645 0 01.588 2.883 6.463 6.463 0 01-.428 2.608zm34.082-8.5H60.36v-6.876h-1.023v-1.143h2.289v8.018zm-3.85 0H56.51v-6.876H55.5v-1.143h2.288v8.018zm-18.3 0H38.21v-6.876H37.2v-1.143h2.288v8.018zm-3.85 0H34.36v-6.876h-1.022v-1.143h2.288v8.018zm-3.851 0h-1.266v-6.876H29.5v-1.143h2.288v8.018zm19.339-.021c-1.952 0-2.86-1.3-2.86-4.092a5.652 5.652 0 01.588-2.883 2.425 2.425 0 012.272-1.166 2.424 2.424 0 012.271 1.166 5.652 5.652 0 01.588 2.883c.008 2.813-.9 4.114-2.851 4.114zm0-7c-1.5 0-1.628 1.5-1.628 2.906 0 1.491.126 2.948 1.628 2.948s1.627-1.456 1.627-2.948c.008-1.382-.118-2.882-1.619-2.882zm-7.052 7c-1.952 0-2.86-1.3-2.86-4.092a5.643 5.643 0 01.588-2.883 2.426 2.426 0 012.272-1.166 2.421 2.421 0 012.271 1.166 5.639 5.639 0 01.588 2.883c.009 2.813-.9 4.114-2.851 4.114zm0-7c-1.5 0-1.628 1.5-1.628 2.906 0 1.491.126 2.948 1.628 2.948s1.628-1.456 1.628-2.948c.01-1.382-.118-2.882-1.62-2.882zm-18.948 7c-1.952 0-2.861-1.3-2.861-4.092a5.652 5.652 0 01.588-2.883 2.427 2.427 0 012.273-1.166 2.421 2.421 0 012.271 1.166 5.652 5.652 0 01.588 2.883c.008 2.813-.9 4.114-2.851 4.114zm0-7c-1.5 0-1.628 1.5-1.628 2.906 0 1.491.126 2.948 1.628 2.948s1.627-1.456 1.627-2.948c.008-1.382-.118-2.882-1.619-2.882zm-7.052 7c-1.952 0-2.861-1.3-2.861-4.092a5.635 5.635 0 01.59-2.883 2.421 2.421 0 012.271-1.166 2.425 2.425 0 012.272 1.166 5.643 5.643 0 01.588 2.883c.009 2.813-.9 4.114-2.852 4.114zm0-7c-1.5 0-1.628 1.5-1.628 2.906 0 1.491.125 2.948 1.628 2.948s1.627-1.456 1.627-2.948c.011-1.382-.118-2.882-1.619-2.882z"
    fill="#e94f37" />
</svg>